<svg width="1291" height="848" viewBox="0 0 1291 848" fill="none" xmlns="http://www.w3.org/2000/svg">
<g clip-path="url(#clip0)">
<path d="M836.886 -526.504C711.727 -537.396 586.405 -467.653 458.741 -429.333C322.905 -388.563 162.301 -380.111 66.9714 -295.424C-30.1819 -209.126 -58.2089 -90.849 -28.1967 3.21489C-0.805594 89.0683 156.693 102.05 217.073 175.037C290.355 263.618 229.292 417.071 355.358 466.846C481.945 516.826 675.603 479.81 818.214 412.382C953.358 348.487 981.15 222.059 1074.55 126.805C1169.08 30.399 1358.47 -39.7947 1367.56 -147.872C1376.63 -255.785 1213.42 -302.906 1116.49 -372.065C1031.22 -432.904 964.08 -515.424 836.886 -526.504Z" stroke="#FAF4EB"/>
<path d="M811.489 -470.047C700.376 -479.714 589.117 -417.791 475.775 -383.777C355.179 -347.586 212.595 -340.076 127.964 -264.887C41.7108 -188.275 16.828 -83.2699 43.4715 0.240226C67.791 76.4622 207.618 87.9875 261.223 152.784C326.281 231.427 272.069 367.664 383.991 411.854C496.375 456.226 668.305 423.363 794.916 363.501C914.891 306.773 939.57 194.528 1022.49 109.967C1106.42 24.3781 1274.55 -37.9424 1282.63 -133.89C1290.68 -229.695 1145.79 -271.53 1059.73 -332.925C984.017 -386.952 924.406 -460.21 811.489 -470.047Z" stroke="#FAF4EB"/>
<path d="M785.25 -411.695C688.646 -420.109 591.914 -366.27 493.378 -336.694C388.534 -305.233 264.574 -298.703 190.991 -233.332C116.004 -166.726 94.37 -75.4334 117.534 -2.83138C138.677 63.4342 260.242 73.4538 306.847 129.788C363.41 198.16 316.278 316.603 413.582 355.021C511.288 393.598 660.764 365.027 770.838 312.984C875.145 263.665 896.605 166.083 968.692 92.5611C1041.66 18.15 1187.84 -36.025 1194.86 -119.446C1201.85 -202.738 1075.88 -239.108 1001.07 -292.485C935.242 -339.454 883.421 -403.149 785.25 -411.695Z" stroke="#FAF4EB"/>
<path d="M760.921 -357.602C677.773 -364.847 594.514 -318.509 509.698 -293.05C419.455 -265.961 312.753 -260.345 249.422 -204.085C184.878 -146.751 166.257 -68.1726 186.193 -5.67973C204.391 51.3558 309.027 59.9809 349.141 108.47C397.827 167.32 357.262 269.268 441.013 302.337C525.112 335.541 653.771 310.948 748.514 266.155C838.298 223.705 856.764 139.712 918.814 76.4293C981.612 12.3808 1107.43 -34.2498 1113.48 -106.057C1119.51 -177.75 1011.07 -209.051 946.672 -255.003C890.022 -295.424 845.422 -350.243 760.921 -357.602Z" stroke="#FAF4EB"/>
<path d="M735.588 -301.285C666.448 -307.297 597.218 -268.769 526.691 -247.597C451.652 -225.078 362.931 -220.405 310.268 -173.623C256.597 -125.947 241.114 -60.6123 257.692 -8.64875C272.824 38.7799 359.834 45.9521 393.187 86.2707C433.67 135.206 399.937 219.979 469.579 247.475C539.509 275.086 646.492 254.637 725.273 217.388C799.927 182.088 815.284 112.247 866.884 59.6266C919.106 6.3703 1023.73 -32.4068 1028.75 -92.1108C1033.76 -151.726 943.597 -177.76 890.051 -215.957C842.937 -249.576 805.853 -295.161 735.588 -301.285Z" stroke="#FAF4EB"/>
<path d="M716.361 -258.565C657.847 -263.662 599.256 -231.042 539.569 -213.131C476.06 -194.07 400.973 -190.122 356.403 -150.52C310.98 -110.174 297.877 -54.8789 311.908 -10.9025C324.715 29.239 398.35 35.3087 426.58 69.4323C460.842 110.847 432.295 182.591 491.233 205.861C550.417 229.228 640.958 211.922 707.634 180.398C770.817 150.524 783.814 91.4152 827.479 46.8811C871.674 1.80518 960.223 -31.0105 964.477 -81.541C968.711 -131.996 892.408 -154.025 847.09 -186.353C807.218 -214.799 775.83 -253.383 716.361 -258.565Z" stroke="#FAF4EB"/>
<path d="M696.526 -214.478C648.977 -218.614 601.362 -192.11 552.862 -177.552C501.255 -162.072 440.238 -158.859 404.019 -126.691C367.109 -93.8962 356.461 -48.9589 367.863 -13.2223C378.269 19.3937 438.106 24.3253 461.046 52.0549C488.888 85.712 465.689 144.009 513.584 162.92C561.677 181.908 635.253 167.848 689.433 142.227C740.776 117.952 751.337 69.9194 786.823 33.7306C822.741 -2.89739 894.69 -29.5642 898.142 -70.6253C901.593 -111.625 839.584 -129.527 802.757 -155.796C770.356 -178.919 744.849 -210.266 696.526 -214.478Z" stroke="#FAF4EB"/>
<path d="M679.544 -176.752C641.378 -180.078 603.163 -158.802 564.229 -147.119C522.806 -134.691 473.831 -132.109 444.762 -106.283C415.136 -79.9647 406.589 -43.8983 415.741 -15.2123C424.094 10.9664 472.122 14.9247 490.535 37.1818C512.882 64.1944 494.265 110.99 532.703 126.168C571.305 141.41 630.36 130.121 673.849 109.56C715.06 90.0745 723.536 51.5206 752.018 22.4738C780.845 -6.92454 838.598 -28.3262 841.372 -61.2861C844.139 -94.197 794.367 -108.563 764.808 -129.659C738.804 -148.212 718.33 -173.379 679.544 -176.752Z" stroke="#FAF4EB"/>
<path d="M664.373 -143.048C634.591 -145.639 604.769 -129.037 574.389 -119.917C542.065 -110.221 503.847 -108.205 481.162 -88.0544C458.043 -67.5177 451.374 -39.3783 458.516 -16.9911C465.034 3.43722 502.513 6.52677 516.881 23.8948C534.319 44.9741 519.789 81.4909 549.785 93.3356C579.908 105.228 625.991 96.4195 659.927 80.3744C692.086 65.1688 698.701 35.0846 720.924 12.4176C743.421 -10.5236 788.487 -27.2264 790.647 -52.9435C792.806 -78.6247 753.97 -89.839 730.904 -106.292C710.616 -120.774 694.64 -140.41 664.373 -143.048Z" stroke="#FAF4EB"/>
</g>
<defs>
<clipPath id="clip0">
<rect width="1358" height="848" fill="white" transform="matrix(1 0 0 -1 -67 848)"/>
</clipPath>
</defs>
</svg>
